<?xml version="1.0" encoding="UTF-8"?>
<svg id="Capa_1" data-name="Capa 1" xmlns="http://www.w3.org/2000/svg" viewBox="0 0 200 200">
  <defs>
    <style>
      .cls-1 {
        fill: #ff9e00;
      }

      .cls-2 {
        fill: #f5f4e2;
      }

      .cls-3 {
        fill: #ebebda;
      }

      .cls-4 {
        fill: #fe0000;
      }

      .cls-5 {
        fill: #ffb13d;
      }

      .cls-6 {
        fill: #ff9e0d;
      }
    </style>
  </defs>
  <g>
    <path class="cls-3" d="M171.16,98.8c7.34-7.74,7.34-20.29,0-28.04-4.68-4.94-11.22-6.71-17.25-5.35-.6-14.69-12.04-26.41-26.1-26.41-2.84,0-5.57.49-8.13,1.38-3.51-6.7-10.27-11.24-18.03-11.24-9.54,0-17.53,6.85-19.87,16.14-3.34-2.47-7.41-3.94-11.81-3.94-11.36,0-20.59,9.73-20.59,21.72,0,1.4.14,2.77.38,4.1-11.98,2.51-21.02,13.67-21.02,27.06,0,14.5,10.6,26.36,24.06,27.5.21,5.26,2.19,10.44,5.99,14.45,6.67,7.04,16.78,8.22,24.62,3.57.94,1.49,2.03,2.9,3.27,4.21,10.22,10.78,26.78,10.78,36.99,0,2.65-2.79,4.6-6.05,5.88-9.52,7.93,5.15,18.45,4.12,25.32-3.13,6.86-7.25,7.84-18.34,2.97-26.7,4.82,0,9.64-1.92,13.32-5.81Z"/>
    <path class="cls-2" d="M162.68,97.46c6.15-6.48,6.15-17,0-23.48-3.92-4.13-9.4-5.62-14.45-4.47-.51-12.3-10.08-22.12-21.86-22.12-2.38,0-4.67.41-6.81,1.15-2.94-5.61-8.6-9.42-15.1-9.42-7.99,0-14.69,5.74-16.64,13.53-2.8-2.08-6.21-3.3-9.89-3.3-9.52,0-17.24,8.14-17.24,18.18,0,1.18.12,2.32.31,3.43-10.03,2.12-17.6,11.46-17.6,22.67,0,12.14,8.87,22.08,20.14,23.03.17,4.4,1.83,8.74,5.01,12.11,5.59,5.89,14.05,6.88,20.62,2.99.79,1.25,1.7,2.43,2.74,3.53,8.55,9.03,22.43,9.03,30.98,0,2.22-2.34,3.85-5.07,4.92-7.97,6.64,4.31,15.44,3.44,21.2-2.63,5.75-6.07,6.57-15.35,2.49-22.36,4.04,0,8.08-1.61,11.15-4.86Z"/>
  </g>
  <path class="cls-4" d="M95.78,152.61s4.6,15.45,2.94,23.62c0,0,1.82,2.18,4.91,1.99v-26.22s-2.41-3.34-7.85.61Z"/>
  <path class="cls-4" d="M111.49,152.61s-4.6,15.45-2.94,23.62c0,0-1.82,2.18-4.91,1.99v-26.22s2.41-3.34,7.85.61Z"/>
  <g>
    <g>
      <path class="cls-4" d="M84.38,154.05c-.14,3.35-2.96,5.95-6.29,5.8-3.34-.15-5.93-2.99-5.79-6.34.14-3.35,2.96-5.95,6.29-5.8,3.34.15,5.93,2.99,5.79,6.34Z"/>
      <path class="cls-4" d="M94.65,147.49c-.18,4.45-3.92,7.89-8.34,7.69-4.43-.2-7.86-3.96-7.68-8.4.18-4.45,3.92-7.89,8.34-7.69,4.42.2,7.86,3.96,7.68,8.41Z"/>
      <path class="cls-4" d="M105.46,145.05c-.18,4.44-3.92,7.88-8.35,7.68-4.42-.19-7.86-3.96-7.68-8.4.18-4.45,3.92-7.89,8.34-7.69,4.43.19,7.86,3.96,7.68,8.41Z"/>
      <path class="cls-4" d="M117.66,145.01c-.18,4.44-3.92,7.88-8.34,7.69-4.43-.19-7.86-3.96-7.68-8.4.18-4.45,3.92-7.89,8.35-7.7,4.42.2,7.86,3.96,7.68,8.41Z"/>
      <path class="cls-4" d="M131.1,146.9c-.18,4.44-3.92,7.88-8.34,7.69-4.43-.2-7.86-3.96-7.68-8.41.18-4.45,3.92-7.89,8.34-7.69,4.43.2,7.86,3.96,7.68,8.41Z"/>
      <path class="cls-4" d="M138.1,152.49c-.14,3.31-2.91,5.86-6.2,5.72-3.29-.15-5.84-2.94-5.71-6.25.14-3.3,2.91-5.86,6.2-5.71,3.29.14,5.84,2.94,5.71,6.24Z"/>
      <path class="cls-4" d="M124.56,148.53c.13-3.03,2.67-5.38,5.68-5.24,3.01.14,5.36,2.7,5.23,5.73-.13,3.03-2.67,5.38-5.68,5.24-3.01-.14-5.35-2.7-5.23-5.73Z"/>
      <path class="cls-4" d="M115.29,154.45c.17-4.01,3.54-7.12,7.53-6.94,4,.18,7.1,3.57,6.93,7.59-.16,4.01-3.54,7.12-7.53,6.94-3.99-.17-7.1-3.58-6.93-7.59Z"/>
      <path class="cls-4" d="M105.54,156.65c.16-4.01,4.03-10.92,8.03-10.74,3.99.17,6.6,7.37,6.44,11.39-.17,4.01-3.54,7.12-7.53,6.94-3.99-.18-7.1-3.58-6.93-7.59Z"/>
      <path class="cls-4" d="M94.52,156.69c.17-4.01,3.54-7.12,7.53-6.94,4,.18,7.1,3.58,6.94,7.58-.17,4.01-3.54,7.13-7.53,6.95-3.99-.18-7.1-3.58-6.93-7.59Z"/>
      <path class="cls-4" d="M82.39,154.98c.17-4.01,3.54-7.12,7.53-6.94,3.99.18,7.1,3.58,6.93,7.59-.17,4.01-3.54,7.12-7.53,6.95-4-.18-7.1-3.58-6.93-7.59Z"/>
      <path class="cls-4" d="M76.07,149.94c.12-2.98,2.63-5.29,5.6-5.16,2.97.13,5.27,2.66,5.15,5.64-.13,2.98-2.63,5.29-5.6,5.17-2.97-.13-5.28-2.66-5.15-5.64Z"/>
    </g>
    <g>
      <path class="cls-6" d="M91.01,150.08c-.09,2.18-1.99,3.88-4.24,3.78-2.25-.1-3.99-1.94-3.9-4.12.09-2.19,1.99-3.88,4.24-3.78,2.25.1,3.99,1.94,3.9,4.12Z"/>
      <path class="cls-6" d="M97.92,145.82c-.12,2.89-2.64,5.14-5.62,5.01-2.98-.13-5.29-2.58-5.17-5.48.12-2.89,2.64-5.12,5.62-5,2.98.12,5.29,2.57,5.17,5.47Z"/>
      <path class="cls-6" d="M105.19,144.23c-.12,2.89-2.64,5.13-5.62,5.01-2.98-.13-5.3-2.57-5.17-5.47.12-2.89,2.64-5.13,5.62-5.01,2.98.13,5.3,2.58,5.17,5.47Z"/>
      <path class="cls-6" d="M113.41,144.2c-.12,2.89-2.64,5.13-5.62,5-2.98-.12-5.29-2.57-5.17-5.47.12-2.89,2.64-5.13,5.62-5.01,2.98.13,5.3,2.58,5.17,5.47Z"/>
      <path class="cls-6" d="M122.46,145.43c-.12,2.9-2.64,5.13-5.62,5.01-2.98-.12-5.3-2.57-5.17-5.47.12-2.89,2.64-5.13,5.62-5.01,2.98.13,5.3,2.58,5.17,5.47Z"/>
      <path class="cls-6" d="M127.18,149.07c-.09,2.15-1.96,3.81-4.17,3.72-2.22-.09-3.93-1.92-3.84-4.07.09-2.14,1.96-3.81,4.18-3.72,2.22.1,3.93,1.92,3.84,4.06Z"/>
      <path class="cls-6" d="M118.06,146.49c.08-1.97,1.8-3.5,3.83-3.41,2.03.09,3.61,1.75,3.52,3.72-.08,1.97-1.8,3.49-3.83,3.41-2.03-.08-3.61-1.75-3.52-3.72Z"/>
      <path class="cls-6" d="M111.82,150.34c.11-2.61,2.38-4.63,5.07-4.52,2.69.11,4.78,2.33,4.67,4.93-.11,2.61-2.38,4.64-5.07,4.52-2.69-.11-4.78-2.32-4.67-4.93Z"/>
      <path class="cls-6" d="M105.25,151.78c.11-2.62,2.72-7.11,5.41-6.99,2.69.12,4.45,4.8,4.33,7.4-.11,2.61-2.38,4.64-5.07,4.52-2.69-.11-4.78-2.32-4.67-4.93Z"/>
      <path class="cls-6" d="M97.84,151.8c.11-2.61,2.38-4.63,5.07-4.52,2.69.12,4.78,2.32,4.67,4.94-.11,2.61-2.38,4.63-5.07,4.52-2.69-.11-4.78-2.32-4.67-4.94Z"/>
      <path class="cls-6" d="M89.66,150.69c.11-2.61,2.38-4.63,5.07-4.52,2.69.11,4.78,2.32,4.67,4.93-.11,2.61-2.38,4.63-5.07,4.52-2.69-.11-4.78-2.32-4.67-4.93Z"/>
      <path class="cls-6" d="M85.41,147.41c.08-1.94,1.77-3.45,3.77-3.36,2,.09,3.55,1.73,3.47,3.67-.08,1.94-1.77,3.44-3.77,3.35-2-.08-3.55-1.73-3.47-3.66Z"/>
    </g>
  </g>
  <path class="cls-4" d="M93.31,116.33s6.12,20.55,3.91,31.41c0,0,2.42,2.91,6.54,2.65v-34.88s-3.21-4.45-10.45.81Z"/>
  <path class="cls-4" d="M114.21,116.33s-6.12,20.55-3.91,31.41c0,0-2.42,2.91-6.54,2.65v-34.88s3.21-4.45,10.45.81Z"/>
  <path class="cls-4" d="M150.2,200s1.39-8.02-5.42-11.11c-.91-.42-1.9-.62-2.94-.62-1.97,0-3.78.79-5.21,2.09-1.47-2.8-4.14-4.68-7.19-4.68-1.22,0-2.37.29-3.42.84-.73-5.12-4.58-9.02-9.23-9.02-.15,0-.29,0-.44,0-.52,2.07-1.71,3.72-3.28,4.43-1.09,2.48-3.05,4-5.2,4-.49,0-.97-.08-1.43-.23-1.09,2.43-3.02,3.95-5.18,3.95-1.5,0-2.94-.75-4.06-2.12-.78-.95-1.36-2.16-1.69-3.5-.1,0-.19,0-.29,0-2.45,0-4.51-2.27-5.09-5.34-2.55.35-4.75,2.03-6.07,4.4-.87-.34-1.8-.54-2.77-.54-3.96,0-7.28,3.16-8.16,7.42-1.35-1.08-2.99-1.72-4.76-1.72-2.92,0-4.46-.28-8.32,3.7-1.2,1.24-2.86,8.02-2.86,8.02h92.99Z"/>
  <path class="cls-6" d="M112.96,170.02c.06.36.09.73.09,1.11,0,2.21-1,4.14-2.5,4.93-.83,1.73-2.25,2.77-3.82,2.77-.22,0-.43-.02-.65-.06-.84,1.55-2.19,2.5-3.69,2.5-1.88,0-3.5-1.48-4.19-3.68-2.11-.16-3.79-2.48-3.79-5.32,0-.07,0-.14,0-.2-.17-.03-.34-.04-.52-.04-2.62,0-4.75,3-4.75,6.71s2.12,6.71,4.75,6.71c.49,0,.96-.1,1.4-.29.42,3.87,2.78,6.83,5.63,6.83,2.4,0,4.46-2.1,5.3-5.08.73.47,1.55.75,2.4.75,2.21,0,4.12-1.77,5.07-4.36,2.15-.64,3.77-3.34,3.77-6.57,0-3.6-2-6.52-4.51-6.7Z"/>
  <path class="cls-4" d="M92.62,173.21c0,.29.02.57.05.85,0,.01,0,.02,0,.04.02.14.04.28.06.42,0,.01,0,.03.01.05.02.14.05.27.09.4,0,.01,0,.03.01.05.04.14.07.27.11.39,0,.01.01.02.02.03.04.13.09.26.14.38,0,0,0,.01,0,.01.44,1.06,1.12,1.87,1.95,2.29,0,0,0,0,0,.01.1.05.2.09.31.13,0,0,0,0,.01,0,.1.03.21.07.32.09,0,0,0,0,0,0,.19.04.39.07.59.07.38,0,.74-.08,1.09-.23.33,3.02,2.17,5.32,4.39,5.32,1.87,0,3.47-1.64,4.13-3.96.57.37,1.21.58,1.87.58,1.72,0,3.21-1.38,3.95-3.4,1.68-.5,2.94-2.61,2.94-5.13,0-2.89-1.66-5.23-3.7-5.23-.93,0-1.77.47-2.42,1.27-.25-.06-.51-.09-.77-.09-.03,0-.07,0-.1,0-.89-1.84-2.6-3.09-4.56-3.09-2.33,0-4.3,1.76-4.97,4.18-.54-.45-1.17-.71-1.85-.71-2.05,0-3.7,2.34-3.7,5.24Z"/>
  <polygon class="cls-1" points="179.9 0 142.89 41.85 160.05 38.1 143.21 59.69 173.79 31.17 155.32 33.61 179.9 0"/>
  <g>
    <path class="cls-6" d="M129.74,125.93c-3.53-1.21-6.49-3.11-8.79-5.45.73.33,1.49.65,2.28.92,11.43,3.92,24.37-.93,28.89-10.83,2.14-4.67,2.01-9.64.08-13.99-.76.46-1.54.9-2.39,1.28-2.93,1.29-6.07,1.88-9.14,1.83.67-.22,1.34-.46,2-.75,3.17-1.4,5.68-3.46,7.47-5.88.19-.27.39-.52.57-.79,3.08-4.73,3.46-10.65.39-15.85-2.22-3.75-5.85-6.46-10.04-7.91-.74-.26-1.51-.47-2.29-.65-.19-.49-.41-.96-.66-1.42-2.35-4.37-7.45-7.39-13.38-7.39-1.4,0-2.75.17-4.04.48.03.06.06.13.09.2-.06-.06-.12-.11-.19-.18-3.84.97-7.04,3.26-8.9,6.26.46-3.57,2.62-6.69,5.77-8.76-9.91-6.64-24.2-5.66-32.72,2.52-1.78,1.71-3.15,3.6-4.16,5.58-.47.93-.86,1.88-1.17,2.85-1.33,4.18-1.13,8.62.56,12.69-3.32-3.24-5.27-7.19-5.86-11.27-7.8,2.99-13.54,9.47-14.32,17.35-.32,3.26.25,6.41,1.52,9.27.28.62.58,1.24.92,1.84,1.92,3.33,4.85,6.18,8.47,8.22-3.38-.58-6.47-1.79-9.16-3.43-.06,8.59,6.03,16.68,15.89,19.79,6.61,2.08,13.58,1.51,19.38-1.09-2.78-4.93-3.33-10.78-.99-16.33,1.41-3.34,3.71-6.19,6.57-8.41-.4.7-.77,1.41-1.09,2.17-4.57,10.85,1.89,22.86,14.42,26.81,4.89,1.54,9.98,1.63,14.65.52-.22-.07-.43-.12-.65-.19Z"/>
    <path class="cls-4" d="M158.23,75.34c-3.41-5.77-10.14-9.09-17.15-9.12-.6-6.59-6.95-11.77-14.71-11.77-2.73,0-5.29.65-7.48,1.77-1.22-1.8-2.77-3.47-4.65-4.94-9.91-7.73-25.19-7.05-34.13,1.54-3.58,3.43-5.59,7.62-6.08,11.88-11.79.6-21.59,8.61-22.63,19.09-.63,6.35,2.11,12.26,6.9,16.47-.28.52-.54,1.05-.77,1.6-4.57,10.85,1.89,22.86,14.43,26.81,9.44,2.98,19.63.55,26.04-5.48,2.75,3.85,6.96,6.96,12.26,8.64,9.01,2.84,18.7.74,25.14-4.7,9.76.98,19.45-3.75,23.24-12.05,3.23-7.06,1.28-14.78-4.25-20.05,6.02-4.98,7.84-12.96,3.86-19.7ZM152.13,110.57c-4.52,9.9-17.46,14.75-28.89,10.83-.79-.27-1.55-.58-2.28-.92,2.29,2.34,5.26,4.24,8.79,5.45.21.07.43.12.65.19-4.66,1.11-9.76,1.02-14.65-.52-12.54-3.96-18.99-15.96-14.42-26.81.31-.76.69-1.47,1.09-2.17-2.86,2.22-5.16,5.07-6.57,8.41-2.34,5.56-1.78,11.41.99,16.33-5.79,2.6-12.77,3.17-19.38,1.09-9.86-3.11-15.95-11.2-15.89-19.79,2.69,1.64,5.78,2.85,9.16,3.43-3.62-2.04-6.55-4.89-8.47-8.22-.34-.6-.64-1.22-.92-1.84-1.27-2.86-1.84-6.01-1.52-9.27.78-7.88,6.52-14.36,14.32-17.35.59,4.08,2.54,8.02,5.86,11.27-1.69-4.06-1.89-8.51-.56-12.69.31-.97.7-1.91,1.17-2.85,1.01-1.99,2.39-3.88,4.16-5.58,8.53-8.18,22.82-9.16,32.72-2.52-3.14,2.06-5.3,5.19-5.77,8.76,1.86-3,5.05-5.29,8.9-6.26.06.07.13.12.19.18-.03-.06-.06-.13-.09-.2,1.28-.32,2.64-.48,4.04-.48,5.86,0,10.91,2.97,13.3,7.25-2.08.21-4.83.82-6.95,2.53,0,0,4.55-2.34,11.08.12,3.72,1.52,6.91,4.07,8.93,7.48,3.07,5.2,2.69,11.12-.39,15.85-.18.27-.37.53-.57.79-1.79,2.42-4.3,4.48-7.47,5.88-.66.29-1.33.53-2,.75,3.08.05,6.21-.53,9.14-1.83.85-.38,1.64-.81,2.39-1.28,1.93,4.35,2.06,9.31-.08,13.99Z"/>
  </g>
  <path class="cls-5" d="M95.45,70.53c-2.1,0-3.81,1.7-3.81,3.81s1.7,3.81,3.81,3.81,3.8-1.7,3.8-3.81-1.7-3.81-3.8-3.81ZM95.45,76.65c-1.46,0-2.64-1.19-2.64-2.64s1.18-2.64,2.64-2.64,2.64,1.18,2.64,2.64-1.18,2.64-2.64,2.64Z"/>
  <path class="cls-5" d="M111.9,90.35c-1.46,0-2.64,1.18-2.64,2.64s1.18,2.65,2.64,2.65,2.64-1.18,2.64-2.65-1.18-2.64-2.64-2.64ZM111.9,94.59c-1.02,0-1.84-.82-1.84-1.83s.82-1.83,1.84-1.83,1.83.82,1.83,1.83-.82,1.83-1.83,1.83Z"/>
  <path class="cls-5" d="M70.53,91.68c-.62-4.81,1.91-9.17,5.79-10.37-.4-.01-.81,0-1.22.05-4.53.59-7.66,5.35-6.97,10.63.69,5.29,4.92,9.09,9.46,8.5.41-.05.8-.15,1.19-.27-4.05-.16-7.61-3.73-8.24-8.54Z"/>
  <path class="cls-5" d="M84.04,107.59c-3.21-1.2-5.1-4.22-4.57-7.05-.14.26-.27.51-.37.78-1.13,3.03.81,6.56,4.35,7.87,3.53,1.31,7.31-.08,8.44-3.11.1-.27.17-.55.22-.83-1.44,2.48-4.85,3.53-8.06,2.33Z"/>
  <path class="cls-5" d="M131.86,80.64c2.38,4.23,1.21,9.46-2.51,12.34.44-.16.87-.36,1.29-.59,4.64-2.61,6.3-8.49,3.68-13.13-2.61-4.65-8.49-6.29-13.13-3.68-.42.24-.8.51-1.17.79,4.39-1.68,9.47.05,11.85,4.28Z"/>
  <path class="cls-5" d="M94.6,61.38c-6.48,1.24-10.93,6.39-9.95,11.51,0,0,.34-6.79,10.48-8.74,10.14-1.94,12.97,4.24,12.97,4.24-.98-5.11-7.03-8.26-13.5-7.02Z"/>
  <path class="cls-5" d="M117,109.39c6.47-1.24,10.93-6.39,9.95-11.52,0,0-.34,6.79-10.48,8.73-10.14,1.94-12.97-4.24-12.97-4.24.98,5.12,7.03,8.26,13.5,7.02Z"/>
</svg>