<?xml version="1.0" encoding="UTF-8"?>
<svg xmlns="http://www.w3.org/2000/svg" xmlns:xlink="http://www.w3.org/1999/xlink" viewBox="0 0 200 200">
  <defs>
    <style>
      .cls-1 {
        fill: url(#radial-gradient-10);
      }

      .cls-2 {
        fill: url(#linear-gradient-13);
      }

      .cls-3 {
        fill: url(#linear-gradient-28);
      }

      .cls-4 {
        fill: url(#linear-gradient-2);
      }

      .cls-5 {
        fill: url(#radial-gradient-9);
      }

      .cls-6 {
        fill: url(#linear-gradient-25);
      }

      .cls-7 {
        fill: url(#linear-gradient-10);
      }

      .cls-8 {
        fill: url(#linear-gradient-12);
      }

      .cls-9 {
        fill: url(#linear-gradient-27);
      }

      .cls-10 {
        fill: url(#linear-gradient-37);
      }

      .cls-11 {
        fill: url(#radial-gradient-14);
      }

      .cls-12 {
        fill: #475254;
      }

      .cls-13 {
        fill: url(#radial-gradient-16);
      }

      .cls-14 {
        fill: url(#radial-gradient-18);
      }

      .cls-15 {
        fill: url(#linear-gradient-34);
      }

      .cls-15, .cls-16 {
        opacity: .5;
      }

      .cls-15, .cls-16, .cls-17 {
        mix-blend-mode: multiply;
      }

      .cls-18 {
        fill: url(#linear-gradient-26);
      }

      .cls-19 {
        fill: url(#linear-gradient-4);
      }

      .cls-20 {
        fill: url(#radial-gradient-5);
      }

      .cls-21 {
        fill: url(#linear-gradient-35);
      }

      .cls-22 {
        fill: url(#linear-gradient-30);
      }

      .cls-23 {
        fill: url(#radial-gradient);
      }

      .cls-24 {
        fill: url(#radial-gradient-3);
      }

      .cls-25 {
        fill: url(#linear-gradient-3);
      }

      .cls-26 {
        fill: url(#linear-gradient-5);
      }

      .cls-27 {
        fill: url(#linear-gradient-38);
      }

      .cls-28 {
        fill: url(#linear-gradient-22);
      }

      .cls-29 {
        fill: url(#linear-gradient-24);
      }

      .cls-30 {
        isolation: isolate;
      }

      .cls-31 {
        fill: url(#radial-gradient-11);
      }

      .cls-32 {
        fill: url(#linear-gradient-33);
      }

      .cls-33 {
        fill: url(#linear-gradient-8);
      }

      .cls-34 {
        fill: url(#radial-gradient-8);
      }

      .cls-35 {
        fill: url(#radial-gradient-2);
      }

      .cls-16 {
        fill: url(#linear-gradient-29);
      }

      .cls-36 {
        fill: url(#linear-gradient-14);
      }

      .cls-37 {
        fill: url(#linear-gradient-20);
      }

      .cls-38 {
        fill: url(#radial-gradient-4);
      }

      .cls-39 {
        fill: url(#linear-gradient-17);
      }

      .cls-40 {
        fill: url(#linear-gradient-7);
      }

      .cls-41 {
        fill: url(#linear-gradient-9);
      }

      .cls-17 {
        fill: url(#linear-gradient-15);
        opacity: .2;
      }

      .cls-42 {
        fill: url(#New_Gradient_Swatch);
      }

      .cls-43 {
        fill: url(#linear-gradient-11);
      }

      .cls-44 {
        fill: url(#linear-gradient-19);
      }

      .cls-45 {
        fill: url(#radial-gradient-12);
      }

      .cls-46 {
        fill: url(#linear-gradient-6);
      }

      .cls-47 {
        fill: url(#radial-gradient-15);
      }

      .cls-48 {
        fill: url(#linear-gradient-36);
      }

      .cls-49 {
        fill: url(#linear-gradient-21);
      }

      .cls-50 {
        fill: url(#radial-gradient-6);
      }

      .cls-51 {
        fill: url(#linear-gradient-32);
      }

      .cls-52 {
        fill: url(#radial-gradient-7);
      }

      .cls-53 {
        fill: url(#linear-gradient-16);
      }

      .cls-54 {
        fill: url(#radial-gradient-17);
      }

      .cls-55 {
        fill: #b751bb;
      }

      .cls-56 {
        fill: url(#radial-gradient-13);
      }

      .cls-57 {
        fill: url(#linear-gradient);
      }

      .cls-58 {
        fill: url(#linear-gradient-23);
      }

      .cls-59 {
        fill: url(#linear-gradient-31);
      }

      .cls-60 {
        fill: url(#linear-gradient-18);
      }
    </style>
    <linearGradient id="linear-gradient" x1="-7.68" y1="67.66" x2=".18" y2="67.66" gradientUnits="userSpaceOnUse">
      <stop offset="0" stop-color="gray"/>
      <stop offset="1" stop-color="#f2f2f2"/>
    </linearGradient>
    <linearGradient id="linear-gradient-2" x1="-6.48" y1="71.82" y2="71.82" xlink:href="#linear-gradient"/>
    <linearGradient id="New_Gradient_Swatch" data-name="New Gradient Swatch" x1="78.66" y1="54.57" x2="84.45" y2="54.57" gradientTransform="translate(78.79) rotate(-180) scale(1 -1)" gradientUnits="userSpaceOnUse">
      <stop offset="0" stop-color="gray"/>
      <stop offset="1" stop-color="#f2f2f2"/>
    </linearGradient>
    <linearGradient id="linear-gradient-3" x1="77.85" y1="54.31" x2="84.42" y2="54.31" gradientTransform="translate(78.79) rotate(-180) scale(1 -1)" xlink:href="#linear-gradient"/>
    <linearGradient id="linear-gradient-4" x1="173.53" y1="78.12" x2="134" y2="56.09" gradientTransform="translate(-118.55 142.94) scale(1 -1)" xlink:href="#linear-gradient"/>
    <linearGradient id="linear-gradient-5" x1="172.02" y1="108.89" x2="137.95" y2="89.91" gradientTransform="translate(-118.55 205.72) scale(1 -1)" xlink:href="#linear-gradient"/>
    <linearGradient id="linear-gradient-6" x1="170.9" y1="89.23" x2="140.58" y2="72.33" gradientTransform="translate(-118.55 167.79) scale(1 -1)" xlink:href="#linear-gradient"/>
    <radialGradient id="radial-gradient" cx="124.15" cy="120.38" fx="124.15" fy="120.38" r="9.53" gradientTransform="translate(223.12 21.53) rotate(-170.75) scale(1 -1)" gradientUnits="userSpaceOnUse">
      <stop offset="0" stop-color="#000"/>
      <stop offset=".24" stop-color="#000003"/>
      <stop offset=".47" stop-color="#00000f"/>
      <stop offset=".71" stop-color="#000123"/>
      <stop offset=".94" stop-color="#00023f"/>
      <stop offset=".99" stop-color="#000347"/>
    </radialGradient>
    <radialGradient id="radial-gradient-2" cx="124.05" cy="120.38" fx="124.05" fy="120.38" r="6.16" gradientTransform="translate(229.79 31.84) rotate(-166.67) scale(1 -1)" gradientUnits="userSpaceOnUse">
      <stop offset=".48" stop-color="#4d4d4d"/>
      <stop offset=".66" stop-color="#8f8f8f"/>
      <stop offset=".82" stop-color="#c4c4c4"/>
      <stop offset=".94" stop-color="#e5e5e5"/>
      <stop offset="1" stop-color="#f2f2f2"/>
    </radialGradient>
    <radialGradient id="radial-gradient-3" cx="124.05" cy="120.38" fx="124.05" fy="120.38" r="4.45" gradientTransform="translate(205.38) rotate(-180) scale(1 -1)" gradientUnits="userSpaceOnUse">
      <stop offset="0" stop-color="gray"/>
      <stop offset="1" stop-color="#f2f2f2"/>
    </radialGradient>
    <linearGradient id="linear-gradient-7" x1="121.37" y1="120.38" x2="126.73" y2="120.38" gradientTransform="translate(205.38) rotate(-180) scale(1 -1)" xlink:href="#linear-gradient"/>
    <radialGradient id="radial-gradient-4" cx="102.34" fx="102.34" gradientTransform="translate(223.41 18.02) rotate(-170.75) scale(1 -1)" xlink:href="#radial-gradient"/>
    <radialGradient id="radial-gradient-5" cx="102.24" fx="102.24" gradientTransform="translate(230.38 26.81) rotate(-166.67) scale(1 -1)" xlink:href="#radial-gradient-2"/>
    <radialGradient id="radial-gradient-6" cx="102.24" fx="102.24" r="4.45" xlink:href="#radial-gradient-3"/>
    <linearGradient id="linear-gradient-8" x1="99.56" y1="120.38" x2="104.92" y2="120.38" gradientTransform="translate(205.38) rotate(-180) scale(1 -1)" xlink:href="#linear-gradient"/>
    <linearGradient id="linear-gradient-9" x1="147.66" y1="118.15" x2="147.66" y2="112.26" gradientTransform="translate(-89.95 229.66) scale(1 -1)" gradientUnits="userSpaceOnUse">
      <stop offset="0" stop-color="#f2f2f2"/>
      <stop offset="1" stop-color="gray"/>
    </linearGradient>
    <linearGradient id="linear-gradient-10" x1="72.79" y1="111.83" x2="185.88" y2="115.96" gradientTransform="translate(205.38) rotate(-180) scale(1 -1)" gradientUnits="userSpaceOnUse">
      <stop offset="0" stop-color="#666"/>
      <stop offset=".16" stop-color="#757575"/>
      <stop offset=".47" stop-color="#9e9e9e"/>
      <stop offset=".89" stop-color="#e0e0e0"/>
      <stop offset="1" stop-color="#f2f2f2"/>
    </linearGradient>
    <radialGradient id="radial-gradient-7" cx="22.25" cy="121.75" fx="22.25" fy="121.75" r="7.05" gradientTransform="translate(284.95 51.39) rotate(-135) scale(1 -1)" xlink:href="#radial-gradient"/>
    <radialGradient id="radial-gradient-8" cx="22.17" cy="121.75" fx="22.17" fy="121.75" r="4.56" gradientTransform="translate(205.38) rotate(-180) scale(1 -1)" xlink:href="#radial-gradient-2"/>
    <radialGradient id="radial-gradient-9" cx="22.17" cy="121.75" fx="22.17" fy="121.75" r="3.29" xlink:href="#radial-gradient-3"/>
    <linearGradient id="linear-gradient-11" x1="20.19" y1="121.75" x2="24.16" y2="121.75" gradientTransform="translate(205.38) rotate(-180) scale(1 -1)" xlink:href="#linear-gradient"/>
    <radialGradient id="radial-gradient-10" cx="36.11" cy="121.75" fx="36.11" fy="121.75" r="7.05" gradientTransform="translate(232.28 11.49) rotate(-166.77) scale(1 -1)" xlink:href="#radial-gradient"/>
    <radialGradient id="radial-gradient-11" cx="36.03" cy="121.75" fx="36.03" fy="121.75" r="4.56" gradientTransform="translate(205.38) rotate(-180) scale(1 -1)" xlink:href="#radial-gradient-2"/>
    <radialGradient id="radial-gradient-12" cx="36.03" cy="121.75" fx="36.03" fy="121.75" r="3.29" xlink:href="#radial-gradient-3"/>
    <linearGradient id="linear-gradient-12" x1="34.05" y1="121.75" x2="38.02" y2="121.75" gradientTransform="translate(205.38) rotate(-180) scale(1 -1)" xlink:href="#linear-gradient"/>
    <radialGradient id="radial-gradient-13" cx="50.01" cy="121.75" fx="50.01" fy="121.75" r="7.05" gradientTransform="translate(276.82 71.02) rotate(-135) scale(1 -1)" xlink:href="#radial-gradient"/>
    <radialGradient id="radial-gradient-14" cx="49.93" cy="121.75" fx="49.93" fy="121.75" r="4.56" gradientTransform="translate(205.38) rotate(-180) scale(1 -1)" xlink:href="#radial-gradient-2"/>
    <radialGradient id="radial-gradient-15" cx="49.93" cy="121.75" fx="49.93" fy="121.75" r="3.29" xlink:href="#radial-gradient-3"/>
    <linearGradient id="linear-gradient-13" x1="47.95" y1="121.75" x2="51.92" y2="121.75" gradientTransform="translate(205.38) rotate(-180) scale(1 -1)" xlink:href="#linear-gradient"/>
    <linearGradient id="linear-gradient-14" x1="121.89" y1="119.75" x2="121.89" y2="71.54" gradientTransform="matrix(1,0,0,1,0,0)" xlink:href="#linear-gradient-10"/>
    <linearGradient id="linear-gradient-15" x1="122.2" y1="107.5" x2="120.86" y2="53.12" gradientUnits="userSpaceOnUse">
      <stop offset="0" stop-color="#9cb3c3"/>
      <stop offset=".97" stop-color="#f2f2f2"/>
    </linearGradient>
    <linearGradient id="linear-gradient-16" x1="58.67" y1="111.08" x2="58.67" y2="72.23" xlink:href="#linear-gradient"/>
    <linearGradient id="linear-gradient-17" x1="81.58" y1="111.08" x2="81.58" y2="72.23" xlink:href="#linear-gradient"/>
    <linearGradient id="linear-gradient-18" x1="104.49" y1="111.08" x2="104.49" y2="72.23" xlink:href="#linear-gradient"/>
    <linearGradient id="linear-gradient-19" x1="127.4" y1="111.08" x2="127.4" y2="72.23" xlink:href="#linear-gradient"/>
    <linearGradient id="linear-gradient-20" x1="150.31" y1="111.08" x2="150.31" y2="72.23" xlink:href="#linear-gradient"/>
    <linearGradient id="linear-gradient-21" x1="173.23" y1="111.08" x2="173.23" y2="72.23" xlink:href="#linear-gradient"/>
    <linearGradient id="linear-gradient-22" x1="192.21" y1="111.08" x2="192.21" y2="72.23" xlink:href="#linear-gradient"/>
    <linearGradient id="linear-gradient-23" x1="176.79" y1="111.71" x2="176.79" y2="128.6" gradientTransform="translate(-148.2 235.21) scale(1 -1)" gradientUnits="userSpaceOnUse">
      <stop offset="0" stop-color="#4c0000"/>
      <stop offset=".02" stop-color="#4f0101"/>
      <stop offset=".23" stop-color="#770e10"/>
      <stop offset=".44" stop-color="#97191d"/>
      <stop offset=".64" stop-color="#ae2025"/>
      <stop offset=".83" stop-color="#bc252b"/>
      <stop offset="1" stop-color="#c1272d"/>
    </linearGradient>
    <linearGradient id="linear-gradient-24" x1="200.27" y1="115.32" x2="201.64" y2="115.32" gradientTransform="translate(-196.87 230.64) scale(1 -1)" gradientUnits="userSpaceOnUse">
      <stop offset="0" stop-color="gray"/>
      <stop offset=".16" stop-color="#858585"/>
      <stop offset=".36" stop-color="#949494"/>
      <stop offset=".58" stop-color="#aeaeae"/>
      <stop offset=".82" stop-color="#d1d1d1"/>
      <stop offset="1" stop-color="#f2f2f2"/>
    </linearGradient>
    <linearGradient id="linear-gradient-25" x1="177.61" y1="100.96" x2="202.5" y2="93.78" gradientTransform="translate(205.38) rotate(-180) scale(1 -1)" gradientUnits="userSpaceOnUse">
      <stop offset="0" stop-color="#c1272d"/>
      <stop offset=".17" stop-color="#d13629"/>
      <stop offset=".48" stop-color="#e94d24"/>
      <stop offset=".77" stop-color="#f85c21"/>
      <stop offset="1" stop-color="#fe6120"/>
    </linearGradient>
    <linearGradient id="linear-gradient-26" x1="194.54" y1="121.61" x2="203.47" y2="121.61" gradientTransform="translate(-189.04 243.21) scale(1 -1)" xlink:href="#linear-gradient-24"/>
    <linearGradient id="linear-gradient-27" x1="161.57" y1="106.22" x2="182.55" y2="95.38" gradientTransform="translate(205.38) rotate(-180) scale(1 -1)" gradientUnits="userSpaceOnUse">
      <stop offset="0" stop-color="#c1272d"/>
      <stop offset="1" stop-color="#fe6120"/>
    </linearGradient>
    <linearGradient id="linear-gradient-28" x1="171.96" y1="90.58" x2="184.89" y2="90.58" gradientTransform="translate(205.38) rotate(-180) scale(1 -1)" gradientUnits="userSpaceOnUse">
      <stop offset="0" stop-color="#000"/>
      <stop offset="1" stop-color="#666"/>
    </linearGradient>
    <linearGradient id="linear-gradient-29" x1="172.65" y1="90.66" y2="90.66" xlink:href="#linear-gradient-28"/>
    <linearGradient id="linear-gradient-30" x1="41.51" y1="129.46" x2="42.97" y2="129.46" gradientTransform="translate(-20.37 -88.58) scale(.94 1.39)" xlink:href="#linear-gradient"/>
    <radialGradient id="radial-gradient-16" cx="175.91" cy="121.44" fx="175.91" fy="121.44" r="10.39" gradientTransform="translate(239.73 159.96) rotate(-135) scale(1 -1)" xlink:href="#radial-gradient"/>
    <radialGradient id="radial-gradient-17" cx="175.8" cy="121.44" fx="175.8" fy="121.44" r="6.72" gradientTransform="translate(228.51 43.46) rotate(-166.77) scale(1 -1)" xlink:href="#radial-gradient-2"/>
    <radialGradient id="radial-gradient-18" cx="175.8" cy="121.44" fx="175.8" fy="121.44" r="4.85" xlink:href="#radial-gradient-3"/>
    <linearGradient id="linear-gradient-31" x1="172.87" y1="121.44" x2="178.72" y2="121.44" gradientTransform="translate(205.38) rotate(-180) scale(1 -1)" xlink:href="#linear-gradient"/>
    <linearGradient id="linear-gradient-32" x1="161.9" y1="115.82" x2="197.51" y2="115.82" gradientTransform="translate(205.38) rotate(-180) scale(1 -1)" gradientUnits="userSpaceOnUse">
      <stop offset="0" stop-color="#c1272d"/>
      <stop offset="1" stop-color="#fe6120"/>
    </linearGradient>
    <linearGradient id="linear-gradient-33" x1="191.56" y1="91.59" x2="200.09" y2="91.59" xlink:href="#linear-gradient-28"/>
    <linearGradient id="linear-gradient-34" x1="195.05" y1="92.94" x2="199.75" y2="92.94" xlink:href="#linear-gradient-28"/>
    <linearGradient id="linear-gradient-35" x1="190.5" y1="115.32" x2="197.02" y2="115.32" gradientTransform="translate(205.38) rotate(-180) scale(1 -1)" xlink:href="#linear-gradient"/>
    <linearGradient id="linear-gradient-36" x1="161.76" y1="75.34" x2="185.85" y2="75.34" gradientTransform="translate(-142.23 150.67) scale(1 -1)" xlink:href="#linear-gradient-27"/>
    <linearGradient id="linear-gradient-37" x1="201.71" y1="122.03" x2="203.36" y2="121.56" gradientTransform="translate(-199.52 243.64) scale(1 -1)" xlink:href="#linear-gradient-24"/>
    <linearGradient id="linear-gradient-38" x1="193.57" y1="107.16" x2="199.07" y2="107.16" gradientTransform="translate(205.38) rotate(-180) scale(1 -1)" xlink:href="#linear-gradient-24"/>
  </defs>
  <g class="cls-30">
    <g id="Capa_1" data-name="Capa 1">
      <g>
        <g>
          <polygon class="cls-57" points="-6.48 69.74 .18 66.2 -1.95 65.58 -1.95 66.2 -7.68 69.26 -6.48 69.74"/>
          <path class="cls-4" d="M.18,66.2v4.79c0,1.52-.79,2.92-2.09,3.7l-4.57,2.75v-7.7l6.66-3.54Z"/>
        </g>
        <g class="cls-30">
          <path class="cls-42" d="M-5.65,55.55l2.89,1.9.05.04c.01.47.34,1.02.74,1.25l1.33.77s.05.02.07.03c.19.09.35.1.47.02.03-.02.06-.05.08-.07,0,0,.01,0,.01-.01.02-.02.04-.05.05-.09.02-.04.04-.08.04-.14.01-.05.02-.1.02-.16l.02-7.41c0-.21-.07-.44-.19-.66-.06-.11-.12-.2-.2-.29-.1-.13-.22-.25-.35-.32h-.02s-.67-.4-.67-.4l-.28-.16-.05-.02-.32-.18c-.07-.04-.17-.08-.24-.1l-.58.02-2.86.1-.03,5.89ZM-5.25,55.24l.02-5.31,2.46-.08h.11c-.02.05-.03.12-.03.2l-.02,6.15v.8l-.05-.04-2.49-1.73Z"/>
          <path class="cls-25" d="M-5.63,49.66l3.26-.12c.06-.02.14-.01.22,0,.06.02.13.05.21.09l.36.21.28.16.68.39h.02c.13.09.25.19.36.33.08.09.14.19.2.3.11.21.18.45.18.66l-.02,7.41c0,.06,0,.11-.02.16,0,.05-.02.1-.04.14-.02.03-.03.06-.06.09,0,0,0,0-.01.01-.02.02-.05.05-.07.07l.8-.46c.13-.08.21-.24.21-.48l.02-7.41c0-.46-.33-1.04-.74-1.27l-1.33-.77c-.16-.09-.3-.12-.43-.09l-3.25.12-.81.47Z"/>
        </g>
      </g>
      <g>
        <g>
          <path class="cls-19" d="M42.4,56.78h2.02v28.36c0,.56-.45,1.01-1.01,1.01h0c-.56,0-1.01-.45-1.01-1.01v-28.36h0Z" transform="translate(86.83 142.94) rotate(180)"/>
          <path class="cls-26" d="M40.56,93.31h5.7v17.02c0,1.15-.93,2.08-2.08,2.08h-1.54c-1.15,0-2.08-.93-2.08-2.08v-17.02h0Z" transform="translate(86.83 205.72) rotate(180)"/>
          <path class="cls-46" d="M41.49,74.35h3.85v17.39c0,.94-.77,1.71-1.71,1.71h-.43c-.94,0-1.71-.77-1.71-1.71v-17.39h0Z" transform="translate(86.83 167.79) rotate(180)"/>
        </g>
        <g>
          <circle class="cls-23" cx="81.23" cy="120.38" r="9.53" transform="translate(-18.3 14.63) rotate(-9.25)"/>
          <circle class="cls-35" cx="81.33" cy="120.38" r="6.16" transform="translate(-25.56 21.99) rotate(-13.33)"/>
          <path class="cls-24" d="M76.88,120.38c0,2.46,1.99,4.45,4.45,4.45s4.45-1.99,4.45-4.45-1.99-4.45-4.45-4.45-4.45,1.99-4.45,4.45ZM77.67,118.82c.09.03.13.13.1.22-.08.2-.14.42-.18.64-.02.08-.09.14-.17.14-.01,0-.02,0-.03,0-.09-.02-.15-.11-.13-.2.05-.24.11-.47.19-.69.03-.09.13-.13.22-.1ZM79.46,117.07c-.19.11-.37.23-.54.37-.03.03-.07.04-.11.04-.05,0-.1-.02-.13-.06-.06-.07-.05-.18.02-.24.18-.15.38-.29.59-.41.08-.05.19-.02.23.06.05.08.02.19-.06.23ZM80.84,116.44c.02.09-.05.18-.14.19-.22.04-.43.09-.64.17-.02,0-.04,0-.06,0-.07,0-.14-.04-.16-.11-.03-.09.02-.19.1-.22.23-.08.46-.14.7-.18.09-.01.18.05.19.14ZM82.22,116.51c-.02.08-.09.14-.17.14,0,0-.02,0-.03,0-.22-.04-.44-.06-.66-.06-.09,0-.17-.08-.17-.17,0-.09.08-.17.17-.17h0c.24,0,.48.03.72.07.09.02.15.11.14.2ZM83.48,117.05c-.03.05-.09.08-.15.08-.03,0-.06,0-.09-.02-.19-.11-.39-.21-.6-.28-.09-.03-.13-.13-.1-.22.03-.09.13-.13.22-.1.23.08.45.19.65.31.08.05.11.15.06.23ZM84.49,117.98s-.07.04-.11.04c-.05,0-.1-.02-.13-.06-.14-.17-.3-.33-.46-.47-.07-.06-.08-.17-.02-.24.06-.07.17-.08.24-.02.18.16.35.33.51.51.06.07.05.18-.02.24ZM85.22,118.99c.03.09-.01.19-.1.22-.02,0-.04,0-.06,0-.07,0-.13-.04-.16-.11-.07-.21-.17-.41-.28-.6-.05-.08-.02-.18.06-.23.08-.05.18-.02.23.06.12.21.22.43.3.65ZM85.29,120.56c-.09,0-.17-.09-.17-.18,0-.22-.02-.43-.05-.64-.02-.09.05-.18.14-.2.1-.02.18.05.2.14.04.23.06.46.06.69v.02c0,.09-.08.16-.17.16ZM84.99,121.92c-.09-.03-.13-.13-.1-.22.07-.2.13-.42.17-.64.02-.09.1-.15.2-.14.09.02.15.11.14.2-.05.24-.11.47-.19.69-.02.07-.09.11-.16.11-.02,0-.04,0-.06-.01ZM84.23,122.83c.14-.17.27-.35.38-.54.05-.08.15-.11.23-.06.08.05.11.15.06.23-.12.21-.26.4-.42.59-.03.04-.08.06-.13.06-.04,0-.08-.01-.11-.04-.07-.06-.08-.17-.02-.24ZM83.21,123.68c.19-.11.37-.24.54-.38.07-.06.18-.05.24.02.06.07.05.18-.02.24-.19.15-.38.29-.59.41-.03.02-.06.02-.08.02-.06,0-.12-.03-.15-.08-.05-.08-.02-.19.06-.23ZM81.84,124.32c-.02-.09.05-.18.14-.2.22-.04.43-.09.64-.17.09-.03.19.01.22.1.03.09-.01.19-.1.22-.23.08-.46.14-.7.18,0,0-.02,0-.03,0-.08,0-.15-.06-.17-.14ZM80.46,124.26c.02-.09.1-.15.2-.14.22.04.44.06.66.06.09,0,.17.08.17.17,0,.09-.08.17-.17.17h0c-.24,0-.48-.02-.72-.06-.09-.02-.15-.1-.14-.2ZM79.19,123.73c.05-.08.15-.11.23-.06.19.11.39.21.6.28.09.03.13.13.1.22-.03.07-.09.11-.16.11-.02,0-.04,0-.06,0-.22-.08-.44-.19-.65-.31-.08-.05-.11-.15-.06-.23ZM78.18,122.8c.07-.06.18-.05.24.02.14.17.3.32.47.47.07.06.08.17.02.24-.03.04-.08.06-.13.06-.04,0-.08-.01-.11-.04-.18-.16-.36-.33-.51-.51-.06-.07-.05-.18.02-.24ZM78.06,118.45c-.03.05-.09.08-.15.08-.03,0-.06,0-.09-.02-.08-.05-.11-.15-.06-.23.12-.21.26-.4.42-.58.06-.07.17-.08.24-.02.07.06.08.17.02.24-.14.17-.27.35-.39.54ZM77.44,121.79c-.03-.09.01-.19.1-.22.09-.03.19.01.22.1.07.21.17.41.28.6.05.08.02.19-.06.23-.03.02-.06.02-.08.02-.06,0-.12-.03-.15-.08-.12-.21-.22-.43-.3-.65ZM77.19,120.38v-.05c0-.09.08-.17.17-.17s.17.08.17.17v.05c0,.22.02.44.06.66.02.09-.05.18-.14.2,0,0-.02,0-.03,0-.08,0-.15-.06-.17-.14-.04-.23-.06-.48-.06-.72Z"/>
          <path class="cls-40" d="M78.64,120.38c0,1.48,1.2,2.68,2.68,2.68s2.68-1.2,2.68-2.68-1.2-2.68-2.68-2.68-2.68,1.2-2.68,2.68Z"/>
        </g>
        <g>
          <circle class="cls-38" cx="103.04" cy="120.38" r="9.53" transform="translate(-18.02 18.14) rotate(-9.25)"/>
          <circle class="cls-20" cx="103.14" cy="120.38" r="6.16" transform="translate(-24.97 27.02) rotate(-13.33)"/>
          <path class="cls-50" d="M98.69,120.38c0,2.46,1.99,4.45,4.45,4.45s4.45-1.99,4.45-4.45-1.99-4.45-4.45-4.45-4.45,1.99-4.45,4.45ZM99.48,118.82c.09.03.13.13.1.22-.08.2-.14.42-.18.64-.01.08-.09.14-.17.14-.01,0-.02,0-.03,0-.09-.02-.15-.11-.13-.2.05-.24.11-.47.19-.69.03-.09.13-.13.22-.1ZM101.27,117.07c-.19.11-.37.23-.54.37-.03.03-.07.04-.11.04-.05,0-.1-.02-.13-.06-.06-.07-.05-.18.02-.24.18-.15.38-.29.59-.41.08-.05.19-.02.23.06.05.08.02.19-.06.23ZM102.65,116.44c.02.09-.05.18-.14.19-.22.04-.43.09-.64.17-.02,0-.04,0-.06,0-.07,0-.14-.04-.16-.11-.03-.09.02-.19.1-.22.23-.08.46-.14.7-.18.09-.01.18.05.19.14ZM104.03,116.51c-.02.08-.09.14-.17.14,0,0-.02,0-.03,0-.22-.04-.44-.06-.66-.06-.09,0-.17-.08-.17-.17,0-.09.08-.17.17-.17h0c.24,0,.48.03.72.07.09.02.15.11.14.2ZM105.29,117.05c-.03.05-.09.08-.15.08-.03,0-.06,0-.09-.02-.19-.11-.39-.21-.6-.28-.09-.03-.13-.13-.1-.22.03-.09.13-.13.22-.1.23.08.45.19.65.31.08.05.11.15.06.23ZM106.3,117.98s-.07.04-.11.04c-.05,0-.1-.02-.13-.06-.14-.17-.3-.33-.46-.47-.07-.06-.08-.17-.02-.24.06-.07.17-.08.24-.02.18.16.35.33.51.51.06.07.05.18-.02.24ZM107.03,118.99c.03.09-.01.19-.1.22-.02,0-.04,0-.06,0-.07,0-.13-.04-.16-.11-.07-.21-.17-.41-.28-.6-.05-.08-.02-.18.06-.23.08-.05.18-.02.23.06.12.21.22.43.3.65ZM107.1,120.56c-.09,0-.17-.09-.17-.18,0-.22-.02-.43-.05-.64-.02-.09.05-.18.14-.2.1-.02.18.05.2.14.04.23.06.46.06.69v.02c0,.09-.08.16-.17.16ZM106.8,121.92c-.09-.03-.13-.13-.1-.22.07-.2.13-.42.17-.64.02-.09.1-.15.2-.14.09.02.15.11.14.2-.05.24-.11.47-.19.69-.02.07-.09.11-.16.11-.02,0-.04,0-.06-.01ZM106.04,122.83c.14-.17.27-.35.38-.54.05-.08.15-.11.23-.06.08.05.11.15.06.23-.12.21-.26.4-.42.59-.03.04-.08.06-.13.06-.04,0-.08-.01-.11-.04-.07-.06-.08-.17-.02-.24ZM105.02,123.68c.19-.11.37-.24.54-.38.07-.06.18-.05.24.02.06.07.05.18-.02.24-.19.15-.38.29-.59.41-.03.02-.06.02-.08.02-.06,0-.12-.03-.15-.08-.05-.08-.02-.19.06-.23ZM103.65,124.32c-.02-.09.05-.18.14-.2.22-.04.43-.09.64-.17.09-.03.19.01.22.1.03.09-.01.19-.1.22-.23.08-.46.14-.7.18,0,0-.02,0-.03,0-.08,0-.15-.06-.17-.14ZM102.27,124.26c.02-.09.1-.15.2-.14.22.04.44.06.66.06.09,0,.17.08.17.17,0,.09-.08.17-.17.17h0c-.24,0-.48-.02-.72-.06-.09-.02-.15-.1-.14-.2ZM101,123.73c.05-.08.15-.11.23-.06.19.11.39.21.6.28.09.03.13.13.1.22-.03.07-.09.11-.16.11-.02,0-.04,0-.06,0-.22-.08-.44-.19-.65-.31-.08-.05-.11-.15-.06-.23ZM99.99,122.8c.07-.06.18-.05.24.02.14.17.3.32.47.47.07.06.08.17.02.24-.03.04-.08.06-.13.06-.04,0-.08-.01-.11-.04-.18-.16-.36-.33-.51-.51-.06-.07-.05-.18.02-.24ZM99.87,118.45c-.03.05-.09.08-.15.08-.03,0-.06,0-.09-.02-.08-.05-.11-.15-.06-.23.12-.21.26-.4.42-.58.06-.07.17-.08.24-.02.07.06.08.17.02.24-.14.17-.27.35-.39.54ZM99.25,121.79c-.03-.09.01-.19.1-.22.09-.03.19.01.22.1.07.21.17.41.28.6.05.08.02.19-.06.23-.03.02-.06.02-.08.02-.06,0-.12-.03-.15-.08-.12-.21-.22-.43-.3-.65ZM99,120.38v-.05c0-.09.08-.17.17-.17s.17.08.17.17v.05c0,.22.02.44.06.66.02.09-.05.18-.14.2,0,0-.02,0-.03,0-.08,0-.15-.06-.17-.14-.04-.23-.06-.48-.06-.72Z"/>
          <path class="cls-33" d="M100.45,120.38c0,1.48,1.2,2.68,2.68,2.68s2.68-1.2,2.68-2.68-1.2-2.68-2.68-2.68-2.68,1.2-2.68,2.68Z"/>
        </g>
        <path class="cls-41" d="M43.13,112.47h31.53v4.72h-31.53c-1.3,0-2.36-1.06-2.36-2.36h0c0-1.3,1.06-2.36,2.36-2.36Z" transform="translate(115.43 229.66) rotate(-180)"/>
        <path class="cls-7" d="M46.85,113.36h150.4c.63,0,1.14-.51,1.14-1.14h0c0-.63-.51-1.14-1.14-1.14H46.85c-.63,0-1.14.51-1.14,1.14h0c0,.63.51,1.14,1.14,1.14Z"/>
        <path class="cls-12" d="M196.68,113.36h-92.21c3.58,0,6.64,2.71,7.9,6.55h84.3v-6.55Z"/>
        <path class="cls-55" d="M82.5,113.36l.06.04c.28-.03.58-.04.87-.04h-.93Z"/>
        <g>
          <circle class="cls-52" cx="183.13" cy="121.75" r="7.05" transform="translate(-32.45 165.15) rotate(-45)"/>
          <path class="cls-34" d="M178.65,121.75c0,2.52,2.04,4.56,4.56,4.56s4.56-2.04,4.56-4.56-2.04-4.56-4.56-4.56-4.56,2.04-4.56,4.56Z"/>
          <path class="cls-5" d="M179.92,121.75c0,1.82,1.47,3.29,3.29,3.29s3.29-1.47,3.29-3.29-1.47-3.29-3.29-3.29-3.29,1.47-3.29,3.29ZM180.51,120.6c.07.02.1.1.07.16-.06.15-.1.31-.13.47-.01.06-.06.1-.12.1,0,0-.02,0-.02,0-.07-.01-.11-.08-.1-.15.03-.18.08-.35.14-.51.02-.07.1-.1.16-.07ZM181.83,119.3c-.14.08-.28.17-.4.28-.02.02-.05.03-.08.03-.04,0-.07-.02-.1-.05-.04-.05-.04-.13.02-.18.14-.11.28-.21.44-.3.06-.03.14-.01.17.05.03.06.01.14-.05.17ZM182.85,118.83c.01.07-.03.13-.1.14-.16.03-.32.07-.47.12-.01,0-.03,0-.04,0-.05,0-.1-.03-.12-.08-.02-.07.01-.14.08-.16.17-.06.34-.1.52-.13.07,0,.13.04.14.1ZM183.87,118.89c-.01.06-.06.1-.12.1,0,0-.02,0-.02,0-.16-.03-.32-.05-.49-.05-.07,0-.13-.06-.12-.13,0-.07.06-.12.13-.12h0c.18,0,.36.02.53.05.07.01.11.08.1.15ZM184.8,119.28s-.07.06-.11.06c-.02,0-.04,0-.06-.02-.14-.08-.29-.15-.44-.21-.06-.02-.1-.1-.07-.16.02-.07.1-.1.16-.07.17.06.33.14.48.23.06.04.08.11.04.17ZM185.55,119.98s-.05.03-.08.03c-.04,0-.07-.02-.1-.05-.1-.13-.22-.24-.34-.35-.05-.05-.06-.12-.01-.18.05-.05.12-.06.18-.01.14.12.26.24.37.38.04.05.04.13-.02.18ZM186.09,120.72c.02.07-.01.14-.08.16-.01,0-.03,0-.04,0-.05,0-.1-.03-.12-.08-.06-.15-.12-.3-.2-.44-.03-.06-.01-.14.05-.17.06-.03.14-.01.17.05.09.15.16.32.22.48ZM186.14,121.88c-.07,0-.13-.07-.13-.13,0-.16-.01-.32-.04-.47-.01-.07.03-.13.1-.14.07-.01.13.03.14.1.03.17.04.34.04.51v.02c0,.07-.06.12-.13.12ZM185.92,122.89c-.07-.02-.1-.1-.07-.16.06-.15.1-.31.13-.47.01-.07.07-.11.15-.1.07.01.11.08.1.15-.03.18-.08.35-.14.51-.02.05-.07.08-.12.08-.01,0-.03,0-.04,0ZM185.35,123.57c.11-.13.2-.26.28-.4.03-.06.11-.08.17-.05.06.04.08.11.05.17-.09.15-.19.3-.31.43-.03.03-.06.04-.1.04-.03,0-.06,0-.08-.03-.05-.05-.06-.12-.01-.18ZM184.6,124.19c.14-.08.28-.17.4-.28.05-.04.13-.04.18.02.04.05.04.13-.02.18-.14.11-.28.22-.44.3-.02.01-.04.02-.06.02-.04,0-.09-.02-.11-.06-.03-.06-.01-.14.05-.17ZM183.59,124.66c-.01-.07.03-.13.1-.14.16-.03.32-.07.47-.12.07-.02.14.01.16.08.02.07,0,.14-.08.16-.17.06-.34.11-.52.14,0,0-.01,0-.02,0-.06,0-.11-.04-.12-.1ZM182.57,124.62c.01-.07.07-.11.15-.1.16.03.32.04.49.04.07,0,.13.06.12.13,0,.07-.06.12-.13.12h0c-.18,0-.36-.02-.53-.05-.07-.01-.11-.08-.1-.15ZM181.63,124.23c.04-.06.11-.08.17-.05.14.08.29.15.44.21.07.02.1.1.07.16-.02.05-.07.08-.12.08-.01,0-.03,0-.04,0-.17-.06-.33-.14-.48-.23-.06-.04-.08-.11-.05-.17ZM180.88,123.54c.05-.04.13-.04.18.02.1.12.22.24.35.35.05.05.06.12.01.18-.03.03-.06.04-.1.04-.03,0-.06,0-.08-.03-.14-.12-.26-.24-.38-.38-.04-.05-.04-.13.02-.18ZM180.79,120.32s-.07.06-.11.06c-.02,0-.04,0-.06-.02-.06-.04-.08-.11-.04-.17.09-.15.2-.3.31-.43.05-.05.12-.06.18-.01.05.05.06.12.01.18-.11.12-.2.26-.28.4ZM180.33,122.79c-.02-.07,0-.14.08-.16.07-.02.14.01.16.08.06.15.12.3.21.44.03.06.01.14-.05.17-.02.01-.04.02-.06.02-.04,0-.09-.02-.11-.06-.09-.15-.16-.32-.22-.48ZM180.15,121.75v-.03c0-.07.06-.13.13-.13s.13.06.13.13v.03c0,.16.01.33.04.49.01.07-.03.13-.1.15,0,0-.01,0-.02,0-.06,0-.11-.04-.12-.1-.03-.17-.05-.35-.05-.53Z"/>
          <path class="cls-43" d="M181.22,121.75c0,1.1.89,1.98,1.98,1.98s1.98-.89,1.98-1.98-.89-1.98-1.98-1.98-1.98.89-1.98,1.98Z"/>
        </g>
        <g>
          <circle class="cls-1" cx="169.27" cy="121.75" r="7.05" transform="translate(-23.37 41.97) rotate(-13.23)"/>
          <path class="cls-31" d="M164.79,121.75c0,2.52,2.04,4.56,4.56,4.56s4.56-2.04,4.56-4.56-2.04-4.56-4.56-4.56-4.56,2.04-4.56,4.56Z"/>
          <path class="cls-45" d="M166.05,121.75c0,1.82,1.47,3.29,3.29,3.29s3.29-1.47,3.29-3.29-1.47-3.29-3.29-3.29-3.29,1.47-3.29,3.29ZM166.64,120.6c.07.02.1.1.07.16-.06.15-.1.31-.13.47-.01.06-.06.1-.12.1,0,0-.02,0-.02,0-.07-.01-.11-.08-.1-.15.03-.18.08-.35.14-.51.02-.07.1-.1.16-.07ZM167.97,119.3c-.14.08-.28.17-.4.28-.02.02-.05.03-.08.03-.04,0-.07-.02-.1-.05-.04-.05-.04-.13.02-.18.14-.11.28-.21.44-.3.06-.03.14-.01.17.05.03.06.01.14-.05.17ZM168.99,118.83c.01.07-.03.13-.1.14-.16.03-.32.07-.47.12-.01,0-.03,0-.04,0-.05,0-.1-.03-.12-.08-.02-.07.01-.14.08-.16.17-.06.34-.1.52-.13.07,0,.13.04.14.1ZM170,118.89c-.01.06-.06.1-.12.1,0,0-.02,0-.02,0-.16-.03-.32-.05-.49-.05-.07,0-.13-.06-.12-.13,0-.07.06-.12.13-.12h0c.18,0,.36.02.53.05.07.01.11.08.1.15ZM170.94,119.28s-.07.06-.11.06c-.02,0-.04,0-.06-.02-.14-.08-.29-.15-.44-.21-.06-.02-.1-.1-.07-.16.02-.07.1-.1.16-.07.17.06.33.14.48.23.06.04.08.11.04.17ZM171.69,119.98s-.05.03-.08.03c-.04,0-.07-.02-.1-.05-.1-.13-.22-.24-.34-.35-.05-.05-.06-.12-.01-.18.05-.05.12-.06.18-.01.14.12.26.24.37.38.04.05.04.13-.02.18ZM172.23,120.72c.02.07-.01.14-.08.16-.01,0-.03,0-.04,0-.05,0-.1-.03-.12-.08-.06-.15-.12-.3-.2-.44-.03-.06-.01-.14.05-.17.06-.03.14-.01.17.05.09.15.16.32.22.48ZM172.28,121.88c-.07,0-.13-.07-.13-.13,0-.16-.01-.32-.04-.47-.01-.07.03-.13.1-.14.07-.01.13.03.14.1.03.17.04.34.04.51v.02c0,.07-.06.12-.13.12ZM172.06,122.89c-.07-.02-.1-.1-.07-.16.06-.15.1-.31.13-.47.01-.07.07-.11.15-.1.07.01.11.08.1.15-.03.18-.08.35-.14.51-.02.05-.07.08-.12.08-.01,0-.03,0-.04,0ZM171.49,123.57c.11-.13.2-.26.28-.4.03-.06.11-.08.17-.05.06.04.08.11.05.17-.09.15-.19.3-.31.43-.03.03-.06.04-.1.04-.03,0-.06,0-.08-.03-.05-.05-.06-.12-.01-.18ZM170.74,124.19c.14-.08.28-.17.4-.28.05-.04.13-.04.18.02.04.05.04.13-.02.18-.14.11-.28.22-.44.3-.02.01-.04.02-.06.02-.04,0-.09-.02-.11-.06-.03-.06-.01-.14.05-.17ZM169.72,124.66c-.01-.07.03-.13.1-.14.16-.03.32-.07.47-.12.07-.02.14.01.16.08.02.07,0,.14-.08.16-.17.06-.34.11-.52.14,0,0-.01,0-.02,0-.06,0-.11-.04-.12-.1ZM168.71,124.62c.01-.07.07-.11.15-.1.16.03.32.04.49.04.07,0,.13.06.12.13,0,.07-.06.12-.13.12h0c-.18,0-.36-.02-.53-.05-.07-.01-.11-.08-.1-.15ZM167.77,124.23c.04-.06.11-.08.17-.05.14.08.29.15.44.21.07.02.1.1.07.16-.02.05-.07.08-.12.08-.01,0-.03,0-.04,0-.17-.06-.33-.14-.48-.23-.06-.04-.08-.11-.05-.17ZM167.02,123.54c.05-.04.13-.04.18.02.1.12.22.24.34.35.05.05.06.12.01.18-.03.03-.06.04-.1.04-.03,0-.06,0-.08-.03-.14-.12-.26-.24-.38-.38-.04-.05-.04-.13.02-.18ZM166.93,120.32s-.07.06-.11.06c-.02,0-.04,0-.06-.02-.06-.04-.08-.11-.04-.17.09-.15.2-.3.31-.43.05-.05.12-.06.18-.01.05.05.06.12.01.18-.11.12-.2.26-.28.4ZM166.47,122.79c-.02-.07,0-.14.08-.16.07-.02.14.01.16.08.06.15.12.3.21.44.03.06.01.14-.05.17-.02.01-.04.02-.06.02-.04,0-.09-.02-.11-.06-.09-.15-.16-.32-.22-.48ZM166.29,121.75v-.03c0-.07.06-.13.13-.13s.13.06.13.13v.03c0,.16.01.33.04.49.01.07-.03.13-.1.15,0,0-.01,0-.02,0-.06,0-.11-.04-.12-.1-.03-.17-.05-.35-.05-.53Z"/>
          <path class="cls-8" d="M167.36,121.75c0,1.1.89,1.98,1.98,1.98s1.98-.89,1.98-1.98-.89-1.98-1.98-1.98-1.98.89-1.98,1.98Z"/>
        </g>
        <g>
          <circle class="cls-56" cx="155.37" cy="121.75" r="7.05" transform="translate(-40.58 145.52) rotate(-45)"/>
          <path class="cls-11" d="M150.89,121.75c0,2.52,2.04,4.56,4.56,4.56s4.56-2.04,4.56-4.56-2.04-4.56-4.56-4.56-4.56,2.04-4.56,4.56Z"/>
          <path class="cls-47" d="M152.15,121.75c0,1.82,1.47,3.29,3.29,3.29s3.29-1.47,3.29-3.29-1.47-3.29-3.29-3.29-3.29,1.47-3.29,3.29ZM152.74,120.6c.07.02.1.1.07.16-.06.15-.1.31-.13.47-.01.06-.06.1-.12.1,0,0-.02,0-.02,0-.07-.01-.11-.08-.1-.15.03-.18.08-.35.14-.51.02-.07.1-.1.16-.07ZM154.07,119.3c-.14.08-.28.17-.4.28-.02.02-.05.03-.08.03-.04,0-.07-.02-.1-.05-.04-.05-.04-.13.02-.18.14-.11.28-.21.44-.3.06-.03.14-.01.17.05.03.06.01.14-.05.17ZM155.09,118.83c.01.07-.03.13-.1.14-.16.03-.32.07-.47.12-.01,0-.03,0-.04,0-.05,0-.1-.03-.12-.08-.02-.07.01-.14.08-.16.17-.06.34-.1.52-.13.07,0,.13.04.14.1ZM156.1,118.89c-.01.06-.06.1-.12.1,0,0-.02,0-.02,0-.16-.03-.32-.05-.49-.05-.07,0-.13-.06-.12-.13,0-.07.06-.12.13-.12h0c.18,0,.36.02.53.05.07.01.11.08.1.15ZM157.04,119.28s-.07.06-.11.06c-.02,0-.04,0-.06-.02-.14-.08-.29-.15-.44-.21-.06-.02-.1-.1-.07-.16.02-.07.1-.1.16-.07.17.06.33.14.48.23.06.04.08.11.04.17ZM157.79,119.98s-.05.03-.08.03c-.04,0-.07-.02-.1-.05-.1-.13-.22-.24-.34-.35-.05-.05-.06-.12-.01-.18.05-.05.12-.06.18-.01.14.12.26.24.37.38.04.05.04.13-.02.18ZM158.33,120.72c.02.07-.01.14-.08.16-.01,0-.03,0-.04,0-.05,0-.1-.03-.12-.08-.06-.15-.12-.3-.2-.44-.03-.06-.01-.14.05-.17.06-.03.14-.01.17.05.09.15.16.32.22.48ZM158.38,121.88c-.07,0-.13-.07-.13-.13,0-.16-.01-.32-.04-.47-.01-.07.03-.13.1-.14.07-.01.13.03.14.1.03.17.04.34.04.51v.02c0,.07-.06.12-.13.12ZM158.15,122.89c-.07-.02-.1-.1-.07-.16.06-.15.1-.31.13-.47.01-.07.07-.11.15-.1.07.01.11.08.1.15-.03.18-.08.35-.14.51-.02.05-.07.08-.12.08-.01,0-.03,0-.04,0ZM157.59,123.57c.11-.13.2-.26.28-.4.03-.06.11-.08.17-.05.06.04.08.11.05.17-.09.15-.19.3-.31.43-.03.03-.06.04-.1.04-.03,0-.06,0-.08-.03-.05-.05-.06-.12-.01-.18ZM156.84,124.19c.14-.08.28-.17.4-.28.05-.04.13-.04.18.02.04.05.04.13-.02.18-.14.11-.28.22-.44.3-.02.01-.04.02-.06.02-.04,0-.09-.02-.11-.06-.03-.06-.01-.14.05-.17ZM155.82,124.66c-.01-.07.03-.13.1-.14.16-.03.32-.07.47-.12.07-.02.14.01.16.08.02.07,0,.14-.08.16-.17.06-.34.11-.52.14,0,0-.01,0-.02,0-.06,0-.11-.04-.12-.1ZM154.8,124.62c.01-.07.07-.11.15-.1.16.03.32.04.49.04.07,0,.13.06.12.13,0,.07-.06.12-.13.12h0c-.18,0-.36-.02-.53-.05-.07-.01-.11-.08-.1-.15ZM153.86,124.23c.04-.06.11-.08.17-.05.14.08.29.15.44.21.07.02.1.1.07.16-.02.05-.07.08-.12.08-.01,0-.03,0-.04,0-.17-.06-.33-.14-.48-.23-.06-.04-.08-.11-.05-.17ZM153.11,123.54c.05-.04.13-.04.18.02.1.12.22.24.35.35.05.05.06.12.01.18-.03.03-.06.04-.1.04-.03,0-.06,0-.08-.03-.14-.12-.26-.24-.38-.38-.04-.05-.04-.13.02-.18ZM153.03,120.32s-.07.06-.11.06c-.02,0-.04,0-.06-.02-.06-.04-.08-.11-.04-.17.09-.15.2-.3.31-.43.05-.05.12-.06.18-.01.05.05.06.12.01.18-.11.12-.2.26-.28.4ZM152.57,122.79c-.02-.07,0-.14.08-.16.07-.02.14.01.16.08.06.15.12.3.21.44.03.06.01.14-.05.17-.02.01-.04.02-.06.02-.04,0-.09-.02-.11-.06-.09-.15-.16-.32-.22-.48ZM152.39,121.75v-.03c0-.07.06-.13.13-.13s.13.06.13.13v.03c0,.16.01.33.04.49.01.07-.03.13-.1.15,0,0-.01,0-.02,0-.06,0-.11-.04-.12-.1-.03-.17-.05-.35-.05-.53Z"/>
          <path class="cls-2" d="M153.46,121.75c0,1.1.89,1.98,1.98,1.98s1.98-.89,1.98-1.98-.89-1.98-1.98-1.98-1.98.89-1.98,1.98Z"/>
        </g>
        <g>
          <rect class="cls-36" x="45.71" y="75.04" width="152.36" height="36.04" rx="5.72" ry="5.72"/>
          <path class="cls-17" d="M45.71,84.93v19.65c0,3.16,2.56,5.72,5.72,5.72h140.91c3.16,0,5.72-2.56,5.72-5.72v-19.65H45.71Z"/>
          <g>
            <rect class="cls-53" x="57.72" y="74.16" width="1.9" height="36.92"/>
            <rect class="cls-39" x="80.63" y="74.16" width="1.9" height="36.92"/>
            <rect class="cls-60" x="103.54" y="74.16" width="1.9" height="36.92"/>
            <rect class="cls-44" x="126.45" y="74.16" width="1.9" height="36.92"/>
            <rect class="cls-37" x="149.36" y="74.16" width="1.9" height="36.92"/>
            <rect class="cls-49" x="172.27" y="74.16" width="1.9" height="36.92"/>
            <rect class="cls-28" x="191.26" y="74.16" width="1.9" height="36.92"/>
          </g>
        </g>
        <g>
          <path class="cls-58" d="M24.23,110.64h8.71c5.27,0,9.55,4.28,9.55,9.55v4.38H14.69v-4.38c0-5.27,4.28-9.55,9.55-9.55Z" transform="translate(57.18 235.21) rotate(180)"/>
          <rect class="cls-29" x="3.44" y="113.34" width="1.64" height="3.95" transform="translate(8.51 230.64) rotate(180)"/>
          <path class="cls-6" d="M4.85,123.38h12.56c.94-6.17,7.16-10.94,14.7-10.94h11.51v-35.92h-24.76c-1.35,0-2.58.67-3.14,1.72l-3.63,6.83-4.55,9.25c-.61,1.24-1.11,2.5-1.48,3.8-.58,1.97-.88,3.98-.92,6.02l-.02,1.51-.05,3.05-.08,5.1-.05,3.06-.1,6.53Z"/>
          <path class="cls-18" d="M3.71,118.21h8.93v5.2c0,.88-.71,1.59-1.59,1.59H3.71v-6.79h0Z" transform="translate(16.34 243.21) rotate(180)"/>
          <g>
            <path class="cls-9" d="M35.51,107.8v-21.5c0-1.16-1.11-2.1-2.47-2.1h-9.72c-1.04,0-1.97.56-2.33,1.39l-4.21,9.92c-.1.23-.15.47-.15.71v11.58c0,1.16,1.11,2.1,2.47,2.1h13.93c1.37,0,2.47-.94,2.47-2.1Z"/>
            <path class="cls-3" d="M22.08,94.71h9.75c.34,0,.64-.09.9-.23.42-.24.69-.65.69-1.11v-5.58c0-.75-.71-1.35-1.59-1.35h-7.47c-.28,0-.53.06-.75.17-.34.15-.6.41-.74.74l-2.29,5.58c-.36.87.41,1.78,1.5,1.78Z"/>
            <path class="cls-16" d="M22.08,94.71h9.75c.34,0,.64-.09.9-.23l-9.12-7.87c-.34.15-.6.41-.74.74l-2.29,5.58c-.36.87.41,1.78,1.5,1.78Z"/>
            <rect class="cls-22" x="18.39" y="85.75" width="1.38" height="10.13" rx=".69" ry=".69"/>
          </g>
          <g>
            <circle class="cls-13" cx="29.47" cy="121.44" r="10.39" transform="translate(-77.24 56.41) rotate(-45)"/>
            <circle class="cls-54" cx="29.58" cy="121.44" r="6.72" transform="translate(-27.01 10) rotate(-13.23)"/>
            <path class="cls-14" d="M24.73,121.44c0,2.68,2.17,4.85,4.85,4.85s4.85-2.17,4.85-4.85-2.17-4.85-4.85-4.85-4.85,2.17-4.85,4.85ZM25.6,119.74c.1.04.14.14.11.24-.08.22-.15.46-.2.69-.02.09-.09.15-.18.15-.01,0-.02,0-.03,0-.1-.02-.17-.12-.15-.22.05-.26.12-.51.21-.76.04-.1.14-.15.24-.11ZM27.55,117.84c-.21.12-.41.25-.59.41-.03.03-.08.04-.12.04-.05,0-.11-.02-.14-.07-.06-.08-.05-.2.03-.26.2-.17.42-.32.65-.44.09-.05.2-.02.25.07.05.09.02.2-.07.25ZM29.05,117.14c.02.1-.05.2-.15.21-.24.04-.47.1-.7.18-.02,0-.04,0-.06,0-.08,0-.15-.05-.17-.12-.03-.1.02-.2.11-.24.25-.09.5-.15.76-.2.1-.01.2.05.21.15ZM30.55,117.22c-.02.09-.09.15-.18.15-.01,0-.02,0-.03,0-.23-.04-.48-.07-.72-.07-.1,0-.18-.08-.18-.19,0-.1.08-.18.18-.18h0c.26,0,.53.03.78.07.1.02.17.12.15.22ZM31.93,117.81c-.03.06-.1.09-.16.09-.03,0-.06,0-.09-.03-.2-.12-.42-.23-.65-.31-.1-.04-.14-.14-.11-.24.04-.1.14-.15.24-.11.25.09.49.21.71.34.09.05.12.17.06.25ZM33.03,118.83s-.08.04-.12.04c-.05,0-.11-.02-.14-.07-.15-.19-.32-.36-.51-.51-.08-.07-.09-.18-.02-.26.07-.08.18-.09.26-.02.2.17.38.36.55.56.06.08.05.2-.02.26ZM33.83,119.93c.03.1-.02.2-.11.24-.02,0-.04.01-.06.01-.08,0-.15-.05-.17-.12-.08-.23-.18-.45-.3-.66-.05-.09-.02-.2.07-.25.09-.05.2-.02.25.07.13.23.24.47.33.71ZM33.91,121.64c-.1,0-.18-.1-.18-.2,0-.23-.02-.47-.06-.69-.02-.1.05-.2.15-.21.1-.02.2.05.21.15.04.25.06.5.06.76v.03c0,.1-.08.17-.18.17ZM33.57,123.12c-.1-.04-.15-.14-.11-.24.08-.22.15-.46.19-.7.02-.1.11-.16.22-.15.1.02.17.12.15.22-.05.26-.12.52-.21.76-.03.07-.1.12-.17.12-.02,0-.04,0-.06-.01ZM32.74,124.12c.16-.18.3-.38.42-.59.05-.09.17-.12.25-.07.09.05.12.16.07.25-.13.22-.28.44-.45.64-.04.04-.09.06-.14.06-.04,0-.09-.01-.12-.04-.08-.07-.09-.18-.02-.26ZM31.64,125.03c.21-.12.41-.26.59-.41.08-.06.2-.06.26.02.07.08.05.19-.02.26-.2.17-.42.32-.64.45-.03.02-.06.02-.09.02-.06,0-.13-.03-.16-.09-.05-.09-.02-.2.07-.25ZM30.14,125.73c-.02-.1.05-.2.15-.21.24-.04.47-.1.7-.18.1-.04.2.02.24.11.03.1-.01.2-.11.24-.25.09-.5.16-.76.2-.01,0-.02,0-.03,0-.09,0-.17-.06-.18-.15ZM28.64,125.67c.02-.1.11-.16.21-.15.23.04.48.06.72.06.1,0,.18.08.18.19,0,.1-.08.18-.18.18h0c-.26,0-.52-.02-.78-.07-.1-.02-.17-.11-.15-.21ZM27.25,125.09c.05-.09.17-.12.25-.07.21.12.43.22.65.31.1.04.14.14.11.24-.03.07-.1.12-.17.12-.02,0-.04,0-.06-.01-.25-.09-.48-.2-.71-.33-.09-.05-.12-.16-.07-.25ZM26.15,124.07c.08-.06.19-.05.26.02.15.18.32.35.51.51.08.07.09.18.02.26-.04.04-.09.06-.14.06-.04,0-.09-.01-.12-.04-.2-.17-.39-.36-.55-.56-.07-.08-.05-.2.02-.26ZM26.02,119.33c-.03.06-.1.09-.16.09-.03,0-.06,0-.09-.03-.09-.05-.12-.17-.06-.25.13-.22.29-.44.46-.64.07-.08.18-.09.26-.02.08.07.09.18.02.26-.16.18-.3.38-.42.58ZM25.34,122.98c-.03-.1.01-.2.11-.24.1-.03.2.02.24.11.08.23.18.44.3.65.05.09.02.2-.07.25-.03.02-.06.02-.09.02-.06,0-.13-.03-.16-.09-.13-.23-.24-.47-.33-.71ZM25.07,121.44v-.05c0-.1.08-.18.18-.18s.18.08.18.18v.05c0,.24.02.48.06.72.02.1-.05.2-.15.21-.01,0-.02,0-.03,0-.09,0-.17-.06-.18-.15-.05-.26-.07-.52-.07-.78Z"/>
            <path class="cls-59" d="M26.66,121.44c0,1.61,1.31,2.92,2.92,2.92s2.92-1.31,2.92-2.92-1.31-2.92-2.92-2.92-2.92,1.31-2.92,2.92Z"/>
          </g>
          <path class="cls-51" d="M11.1,125h6.19c0-.55.04-1.09.12-1.62.94-6.17,7.16-10.94,14.7-10.94h14.6v-5.79h-13.96c-5.98,0-11.39,2.06-15.31,5.38-3.5,2.96-5.8,6.94-6.26,11.36-.06.54-.08,1.08-.08,1.62Z"/>
          <g>
            <path class="cls-32" d="M6.06,98.11h2.72c.43,0,.84-.13,1.15-.35.26-.18.46-.42.57-.69l4-9.96c.4-1-.48-2.04-1.72-2.04h-.68l-1.33,2.71-3.22,6.53c-.61,1.24-1.11,2.5-1.48,3.8Z"/>
            <path class="cls-15" d="M6.06,98.11h2.72c.43,0,.84-.13,1.15-.35l.83-9.98-3.22,6.53c-.61,1.24-1.11,2.5-1.48,3.8Z"/>
          </g>
          <path class="cls-21" d="M4.95,116.85h5.57c.52,0,.95-.36.95-.81v-1.45c0-.44-.43-.81-.95-.81h-5.52l-.05,3.06Z"/>
          <rect class="cls-48" x="19.53" y="74.16" width="24.09" height="2.35" transform="translate(63.15 150.67) rotate(180)"/>
          <rect class="cls-10" x="2.15" y="119.73" width="1.55" height="4.19" transform="translate(5.86 243.64) rotate(180)"/>
          <polygon class="cls-27" points="5.07 108.68 11.66 108.68 11.66 105.64 5.12 105.64 5.07 108.68"/>
        </g>
      </g>
    </g>
  </g>
</svg>